<?xml version="1.0" encoding="UTF-8"?>
<svg version="1.1" xmlns="http://www.w3.org/2000/svg" width="476" height="548">
<path d="M0 0 C157.08 0 314.16 0 476 0 C476 180.84 476 361.68 476 548 C318.92 548 161.84 548 0 548 C0 367.16 0 186.32 0 0 Z " fill="#FAFAFB" transform="translate(0,0)"/>
<path d="M0 0 C1.4223999 0.355177 1.4223999 0.355177 2.87353516 0.7175293 C3.85628418 0.97187744 4.8390332 1.22622559 5.8515625 1.48828125 C6.89231934 1.75229736 7.93307617 2.01631348 9.00537109 2.28833008 C16.58808076 4.23973723 24.07971126 6.43165215 31.55737305 8.74951172 C37.66032802 10.62070959 43.74690184 12.05294189 50.01953125 13.2578125 C52.4765625 13.80078125 52.4765625 13.80078125 53.4765625 14.80078125 C54.82709064 14.96036226 56.18265412 15.07806401 57.5390625 15.17578125 C61.37349117 15.56704948 64.60057894 16.45383663 68.19140625 17.91015625 C75.84620081 20.89356336 83.65800453 22.9733918 91.75390625 24.296875 C96.40741553 25.15814142 100.93472092 26.48303224 105.4765625 27.80078125 C105.4765625 28.46078125 105.4765625 29.12078125 105.4765625 29.80078125 C106.25 29.91035156 107.0234375 30.01992188 107.8203125 30.1328125 C113.21939684 30.95470281 118.14764546 31.87866045 123.18774414 33.9765625 C130.15953883 36.48715225 137.69996705 37.65748875 144.94921875 39.125 C156.65938855 41.52395535 167.60311823 44.27894195 178.58300781 49.03637695 C184.98701147 51.76359004 191.12615053 53.20251097 197.99609375 54.23046875 C201.59975242 54.82096725 204.97606086 55.77237058 208.4765625 56.80078125 C208.67955786 63.40221556 208.81955985 70.00284488 208.91601562 76.60668945 C208.9562254 78.85243807 209.01080391 81.09797754 209.08007812 83.34301758 C209.17724051 86.5729526 209.22251316 89.80011946 209.2578125 93.03125 C209.31974792 94.5346418 209.31974792 94.5346418 209.38293457 96.06840515 C209.38730036 102.8643682 209.38730036 102.8643682 206.74780273 105.57827759 C203.51980293 107.69075125 201.37518324 108.80078125 197.4765625 108.80078125 C197.4765625 109.46078125 197.4765625 110.12078125 197.4765625 110.80078125 C196.69796875 111.2390625 195.919375 111.67734375 195.1171875 112.12890625 C187.85571089 116.24485843 180.67810432 120.47582239 173.5390625 124.80078125 C167.02835772 128.73974229 160.46928376 132.48783303 153.71826172 135.99731445 C148.47271975 138.7437807 143.51171534 141.82722533 138.5 144.9765625 C134.89949766 147.14895861 131.20859853 149.01131758 127.40234375 150.79296875 C122.62838406 153.29130871 121.47609868 158.2225384 119.640625 162.95703125 C117.30856642 168.93666864 114.69158709 174.74037387 111.93847656 180.53515625 C110.3338807 183.91965499 108.84338255 187.31423181 107.4765625 190.80078125 C106.77623801 192.40846045 106.06819393 194.01280438 105.3515625 195.61328125 C104.99835938 196.40347656 104.64515625 197.19367188 104.28125 198.0078125 C104.01570313 198.59949219 103.75015625 199.19117188 103.4765625 199.80078125 C102.8165625 199.80078125 102.1565625 199.80078125 101.4765625 199.80078125 C101.34507812 201.01894531 101.34507812 201.01894531 101.2109375 202.26171875 C100.2991086 206.655958 98.60972121 210.37166358 96.7265625 214.42578125 C96.00149948 216.01902899 95.27754416 217.61278128 94.5546875 219.20703125 C94.20083984 219.98433594 93.84699219 220.76164063 93.48242188 221.5625 C91.37044809 226.26215429 89.42219236 231.0302465 87.4765625 235.80078125 C86.8165625 235.80078125 86.1565625 235.80078125 85.4765625 235.80078125 C85.4146875 236.58453125 85.3528125 237.36828125 85.2890625 238.17578125 C84.38736793 242.19872626 82.84868487 245.32394511 80.92578125 248.9453125 C78.95394266 252.83052546 77.22191251 256.8097008 75.4765625 260.80078125 C67.92699998 278.03628414 67.92699998 278.03628414 63.9765625 285.73828125 C59.21605145 295.08380064 54.7957199 304.84330905 51.4765625 314.80078125 C50.8165625 314.80078125 50.1565625 314.80078125 49.4765625 314.80078125 C49.37859375 315.65542969 49.280625 316.51007813 49.1796875 317.390625 C48.3983839 321.17994746 47.04415948 323.95331127 45.2265625 327.36328125 C42.266551 333.04105268 39.87810943 338.77306604 37.65625 344.78515625 C36.24314384 348.39746736 34.51266392 351.76878601 32.7265625 355.20703125 C30.78626245 359.23315386 29.30495424 363.42160588 27.7421875 367.60546875 C26.21582552 371.45906165 24.41728884 375.10990386 22.4921875 378.77734375 C21.35945746 380.91384824 21.35945746 380.91384824 20.4765625 383.80078125 C19.8165625 383.80078125 19.1565625 383.80078125 18.4765625 383.80078125 C18.13625 385.71890625 18.13625 385.71890625 17.7890625 387.67578125 C16.78070679 392.20985622 15.05621703 395.91899336 12.89453125 400.0078125 C11.28665716 403.17483723 9.91197554 406.40024857 8.5390625 409.67578125 C6.73426524 413.94789629 4.85531977 418.11868619 2.7265625 422.23828125 C-2.19236014 431.85253914 -6.27346579 441.87829536 -10.5234375 451.80078125 C-13.5234375 450.80078125 -13.5234375 450.80078125 -14.67089844 448.72216797 C-15.02958008 447.81740723 -15.38826172 446.91264648 -15.7578125 445.98046875 C-16.16330322 444.97790039 -16.56879395 443.97533203 -16.98657227 442.94238281 C-17.41123779 441.8644043 -17.83590332 440.78642578 -18.2734375 439.67578125 C-19.17078689 437.45866651 -20.07052259 435.2425161 -20.97265625 433.02734375 C-21.41013184 431.95000977 -21.84760742 430.87267578 -22.29833984 429.76269531 C-24.28586019 424.95747473 -26.50000967 420.27942896 -28.73828125 415.5859375 C-30.95716648 410.92387083 -33.04421808 406.20289119 -35.1484375 401.48828125 C-37.4435786 396.34818142 -39.74774828 391.23945918 -42.3359375 386.23828125 C-44.47728702 382.08024982 -46.01633049 377.80453702 -47.55859375 373.39453125 C-48.67573779 370.3913586 -50.03751049 367.60571216 -51.51953125 364.76953125 C-52.99789814 361.87032148 -54.27528984 358.8891658 -55.57421875 355.90625 C-56.40349011 354.0668374 -57.33092549 352.27232184 -58.2734375 350.48828125 C-59.5234375 347.80078125 -59.5234375 347.80078125 -59.5234375 343.80078125 C-60.1834375 343.80078125 -60.8434375 343.80078125 -61.5234375 343.80078125 C-62.25260417 342.05078125 -62.98177083 340.30078125 -63.7109375 338.55078125 C-64.40123047 336.89755859 -64.40123047 336.89755859 -65.10546875 335.2109375 C-65.98464441 333.09655637 -66.85815442 330.97979807 -67.72265625 328.859375 C-71.61062568 319.36549616 -75.8297471 309.98878232 -80.5234375 300.86328125 C-82.83850169 296.3221938 -84.79092256 291.61678627 -86.80981445 286.93920898 C-88.65374119 282.69852271 -90.60798524 278.54650289 -92.7109375 274.42578125 C-94.92743147 270.08098272 -96.83588579 265.7098653 -98.59765625 261.1640625 C-100.75926001 255.64604445 -103.24390427 250.31503312 -105.9609375 245.05078125 C-107.85021324 241.32948054 -109.39516653 237.5919708 -110.8359375 233.67578125 C-112.73505541 228.59757568 -114.93394881 223.80648851 -117.3984375 218.98828125 C-120.26172546 213.38518761 -122.98161935 207.74513812 -125.5234375 201.98828125 C-125.82620605 201.31240967 -126.12897461 200.63653809 -126.44091797 199.94018555 C-127.70124436 197.05030518 -128.5234375 194.9894069 -128.5234375 191.80078125 C-129.1834375 191.80078125 -129.8434375 191.80078125 -130.5234375 191.80078125 C-130.75417969 191.20652344 -130.98492187 190.61226562 -131.22265625 190 C-133.47396495 184.27829448 -135.91979958 178.69695099 -138.5703125 173.1484375 C-139.5234375 170.80078125 -139.5234375 170.80078125 -139.5234375 167.80078125 C-140.1834375 167.80078125 -140.8434375 167.80078125 -141.5234375 167.80078125 C-142.36083531 165.67737965 -143.19324033 163.55200845 -144.0234375 161.42578125 C-144.4875 160.24242187 -144.9515625 159.0590625 -145.4296875 157.83984375 C-146.5234375 154.80078125 -146.5234375 154.80078125 -146.5234375 152.80078125 C-147.6211145 152.38324585 -147.6211145 152.38324585 -148.7409668 151.95727539 C-151.3145573 150.88759932 -153.63356948 149.69097495 -156.04296875 148.296875 C-156.8935083 147.80735352 -157.74404785 147.31783203 -158.62036133 146.81347656 C-159.51650146 146.29366211 -160.4126416 145.77384766 -161.3359375 145.23828125 C-163.2106739 144.15839641 -165.08567707 143.07897459 -166.9609375 142 C-168.35892578 141.1944165 -168.35892578 141.1944165 -169.78515625 140.37255859 C-173.78861435 138.07456793 -177.81004899 135.80918394 -181.8359375 133.55078125 C-182.85747925 132.97734985 -182.85747925 132.97734985 -183.8996582 132.39233398 C-185.4405567 131.52783882 -186.98193421 130.66419752 -188.5234375 129.80078125 C-188.5234375 129.14078125 -188.5234375 128.48078125 -188.5234375 127.80078125 C-189.2040625 127.71828125 -189.8846875 127.63578125 -190.5859375 127.55078125 C-194.3981282 126.57745597 -197.16414079 124.8427067 -200.5234375 122.80078125 C-200.5234375 122.14078125 -200.5234375 121.48078125 -200.5234375 120.80078125 C-201.06097656 120.69894531 -201.59851563 120.59710938 -202.15234375 120.4921875 C-210.91288694 117.93763043 -224.9382567 110.38596205 -231.5234375 103.80078125 C-231.61647768 102.32723777 -231.64090015 100.84927534 -231.63696289 99.37280273 C-231.63688736 98.43190292 -231.63681183 97.49100311 -231.63673401 96.52159119 C-231.63157272 95.49868484 -231.62641144 94.4757785 -231.62109375 93.421875 C-231.6196788 92.38007584 -231.61826385 91.33827667 -231.61680603 90.26490784 C-231.6111883 86.92267031 -231.5986328 83.58049868 -231.5859375 80.23828125 C-231.58092478 77.97851659 -231.57636148 75.71875088 -231.57226562 73.45898438 C-231.56121311 67.90622734 -231.54445774 62.353509 -231.5234375 56.80078125 C-227.77443583 55.69319665 -224.02416668 54.59000253 -220.2734375 53.48828125 C-218.70722656 53.02518555 -218.70722656 53.02518555 -217.109375 52.55273438 C-211.85772288 51.01289811 -206.60703431 49.55185231 -201.2890625 48.2578125 C-196.9963334 47.20766593 -192.84735222 45.95827831 -188.67285156 44.51513672 C-184.96367938 43.2823973 -181.1834423 42.33224564 -177.3984375 41.36328125 C-175.73169596 40.93127836 -174.06503021 40.49898295 -172.3984375 40.06640625 C-171.57859375 39.85435547 -170.75875 39.64230469 -169.9140625 39.42382812 C-167.03710694 38.67403334 -164.16663456 37.90162943 -161.29663086 37.12573242 C-145.27638533 32.80078125 -145.27638533 32.80078125 -139.5234375 32.80078125 C-139.5234375 32.14078125 -139.5234375 31.48078125 -139.5234375 30.80078125 C-138.83830078 30.63473389 -138.15316406 30.46868652 -137.44726562 30.29760742 C-134.30472508 29.53292609 -131.16409375 28.76066357 -128.0234375 27.98828125 C-126.94578125 27.72724609 -125.868125 27.46621094 -124.7578125 27.19726562 C-119.51378516 25.90224668 -114.49515315 24.48466583 -109.4765625 22.49487305 C-105.67388707 21.14349727 -101.72233947 20.40988078 -97.7734375 19.61328125 C-96.93683594 19.43603516 -96.10023438 19.25878906 -95.23828125 19.07617188 C-91.52297119 18.30881517 -88.34940961 17.80078125 -84.5234375 17.80078125 C-84.5234375 17.14078125 -84.5234375 16.48078125 -84.5234375 15.80078125 C-82.2134375 15.80078125 -79.9034375 15.80078125 -77.5234375 15.80078125 C-77.5234375 15.14078125 -77.5234375 14.48078125 -77.5234375 13.80078125 C-76.63962402 13.58526611 -75.75581055 13.36975098 -74.84521484 13.14770508 C-66.61705628 11.11798163 -58.42711015 8.9765251 -50.25 6.75 C-47.2378442 5.93763931 -44.22521673 5.12705322 -41.21240234 4.31713867 C-39.15748521 3.76124675 -37.10410284 3.19965225 -35.05224609 2.63256836 C-32.03892544 1.80148048 -29.02034797 0.99261952 -26 0.1875 C-24.64341782 -0.19514763 -24.64341782 -0.19514763 -23.25942993 -0.58552551 C-15.17435868 -2.70243706 -8.06001822 -2.0295519 0 0 Z " fill="#2F72B3" transform="translate(247.5234375,21.19921875)"/>
<path d="M0 0 C0.06941953 9.22267087 0.12277008 18.44525222 0.15543652 27.66812706 C0.17111243 31.95039452 0.19238549 36.23248364 0.22631836 40.51464844 C0.25884364 44.6448912 0.2768385 48.77496211 0.28463173 52.90532303 C0.29018758 54.48345268 0.30103646 56.06157261 0.31719017 57.63962936 C0.33887438 59.84508561 0.34197082 62.04982592 0.34057617 64.25537109 C0.35056892 66.14067032 0.35056892 66.14067032 0.36076355 68.0640564 C0.24171158 69.03291779 0.12265961 70.00177917 0 71 C-2.80037927 72.86691951 -4.31584686 73.46218406 -7.5 74.18359375 C-8.82354492 74.48970581 -8.82354492 74.48970581 -10.17382812 74.80200195 C-11.10646484 75.01171631 -12.03910156 75.22143066 -13 75.4375 C-14.90660199 75.87607678 -16.81285648 76.31616713 -18.71875 76.7578125 C-20.08966797 77.07540527 -20.08966797 77.07540527 -21.48828125 77.39941406 C-25.31074797 78.31341757 -29.08171372 79.38465031 -32.84375 80.51953125 C-35.28147671 81.06272035 -37.51027397 81.08328309 -40 81 C-40 81.66 -40 82.32 -40 83 C-44.77664501 85.21985162 -49.73591227 86.03689132 -54.875 87 C-60.67741599 88.09705945 -66.34032513 89.28494701 -72 91 C-73.89431104 91.54696663 -75.79004101 92.08905581 -77.6875 92.625 C-78.59886719 92.88539062 -79.51023438 93.14578125 -80.44921875 93.4140625 C-83 94 -83 94 -87 94 C-86.67 95.65 -86.34 97.3 -86 99 C-85.34 99 -84.68 99 -84 99 C-83.27083333 100.75 -82.54166667 102.5 -81.8125 104.25 C-81.35359375 105.34828125 -80.8946875 106.4465625 -80.421875 107.578125 C-79.52744589 109.73065219 -78.6408644 111.88647394 -77.765625 114.046875 C-75.65489324 119.22776204 -73.40282564 124.22690065 -70.8125 129.1875 C-68.2836419 134.12169871 -66.9097345 138.541593 -66 144 C-65.34 144 -64.68 144 -64 144 C-63.57589844 144.98097656 -63.15179688 145.96195313 -62.71484375 146.97265625 C-62.12279877 148.33611253 -61.53031715 149.69937927 -60.9375 151.0625 C-60.62675537 151.77825195 -60.31601074 152.49400391 -59.99584961 153.23144531 C-58.37727271 156.93592612 -56.72419339 160.61615052 -54.9765625 164.26171875 C-54.6556665 164.93259521 -54.33477051 165.60347168 -54.00415039 166.29467773 C-53.3876676 167.57479457 -52.76469038 168.85180891 -52.13452148 170.12524414 C-50.54303214 173.43310831 -50 175.22987683 -50 179 C-49.34 179 -48.68 179 -48 179 C-46.14223235 182.13498292 -45.79859524 184.37471432 -46 188 C-45.34 188 -44.68 188 -44 188 C-43.55269531 189.02738281 -43.10539063 190.05476562 -42.64453125 191.11328125 C-36.55089531 205.28615254 -36.55089531 205.28615254 -29.875 219.1875 C-28.3165704 222.248921 -27.13872729 225.35450527 -25.98828125 228.59375 C-24.14479214 233.08224522 -21.78703275 237.34439786 -19.5234375 241.6328125 C-18.07028327 244.84465595 -17.39191087 247.51517091 -17 251 C-16.34 251 -15.68 251 -15 251 C-12.76480232 255.94490659 -10.61601687 260.91418184 -8.5625 265.9375 C-6.99001242 269.77165181 -5.27985926 273.41709902 -3.3125 277.0625 C1.40250746 286.39504767 1.28962151 296.48764442 1.24291992 306.73876953 C1.24399568 308.0822509 1.2459387 309.4257318 1.24867249 310.76921082 C1.25347994 314.38740084 1.24591431 318.00546564 1.23571944 321.62364054 C1.22685734 325.43666316 1.22869804 329.24968279 1.2290802 333.06271362 C1.22814633 339.4695644 1.21950435 345.87636757 1.20581055 352.28320312 C1.19012843 359.64657326 1.18481129 367.00989119 1.1855461 374.37327683 C1.18622688 382.26598949 1.17925238 390.15868254 1.1700995 398.05138922 C1.16798803 400.29978481 1.16726103 402.54817715 1.16686058 404.79657364 C1.15662987 434.84399131 1.15662987 434.84399131 0 449 C-3.33159774 447.46289188 -4.54235296 446.63601641 -5.89453125 443.17578125 C-6.20640381 442.40242432 -6.51827637 441.62906738 -6.83959961 440.83227539 C-7.16065674 440.00074951 -7.48171387 439.16922363 -7.8125 438.3125 C-8.5158717 436.56675664 -9.22162874 434.82197259 -9.9296875 433.078125 C-10.27870117 432.21251953 -10.62771484 431.34691406 -10.98730469 430.45507812 C-12.87497626 425.8787943 -15.02458389 421.43368685 -17.14453125 416.9609375 C-19.37570362 412.23509728 -21.49435358 407.45926936 -23.625 402.6875 C-25.92023646 397.54743639 -28.2243069 392.43868544 -30.8125 387.4375 C-32.95384952 383.27946857 -34.49289299 379.00375577 -36.03515625 374.59375 C-37.15230029 371.59057735 -38.51407299 368.80493091 -39.99609375 365.96875 C-41.47446064 363.06954023 -42.75185234 360.08838455 -44.05078125 357.10546875 C-44.88005261 355.26605615 -45.80748799 353.47154059 -46.75 351.6875 C-48 349 -48 349 -48 345 C-48.66 345 -49.32 345 -50 345 C-50.72916667 343.25 -51.45833333 341.5 -52.1875 339.75 C-52.87779297 338.09677734 -52.87779297 338.09677734 -53.58203125 336.41015625 C-54.46120691 334.29577512 -55.33471692 332.17901682 -56.19921875 330.05859375 C-60.08718818 320.56471491 -64.3063096 311.18800107 -69 302.0625 C-71.31506419 297.52141255 -73.26748506 292.81600502 -75.28637695 288.13842773 C-77.13030369 283.89774146 -79.08454774 279.74572164 -81.1875 275.625 C-83.40399397 271.28020147 -85.31244829 266.90908405 -87.07421875 262.36328125 C-89.23582251 256.8452632 -91.72046677 251.51425187 -94.4375 246.25 C-96.32677574 242.52869929 -97.87172903 238.79118955 -99.3125 234.875 C-101.21161791 229.79679443 -103.41051131 225.00570726 -105.875 220.1875 C-108.73828796 214.58440636 -111.45818185 208.94435687 -114 203.1875 C-114.30276855 202.51162842 -114.60553711 201.83575684 -114.91748047 201.1394043 C-116.17780686 198.24952393 -117 196.18862565 -117 193 C-117.66 193 -118.32 193 -119 193 C-119.23074219 192.40574219 -119.46148437 191.81148437 -119.69921875 191.19921875 C-121.95052745 185.47751323 -124.39636208 179.89616974 -127.046875 174.34765625 C-128 172 -128 172 -128 169 C-128.66 169 -129.32 169 -130 169 C-130.83739781 166.8765984 -131.66980283 164.7512272 -132.5 162.625 C-132.9640625 161.44164062 -133.428125 160.25828125 -133.90625 159.0390625 C-135 156 -135 156 -135 154 C-136.097677 153.5824646 -136.097677 153.5824646 -137.2175293 153.15649414 C-139.7911198 152.08681807 -142.11013198 150.8901937 -144.51953125 149.49609375 C-145.3700708 149.00657227 -146.22061035 148.51705078 -147.09692383 148.01269531 C-147.99306396 147.49288086 -148.8892041 146.97306641 -149.8125 146.4375 C-151.6872364 145.35761516 -153.56223957 144.27819334 -155.4375 143.19921875 C-156.83548828 142.39363525 -156.83548828 142.39363525 -158.26171875 141.57177734 C-162.26517685 139.27378668 -166.28661149 137.00840269 -170.3125 134.75 C-171.33404175 134.1765686 -171.33404175 134.1765686 -172.3762207 133.59155273 C-173.9171192 132.72705757 -175.45849671 131.86341627 -177 131 C-177 130.34 -177 129.68 -177 129 C-177.680625 128.9175 -178.36125 128.835 -179.0625 128.75 C-182.8746907 127.77667472 -185.64070329 126.04192545 -189 124 C-189 123.34 -189 122.68 -189 122 C-189.53753906 121.89816406 -190.07507813 121.79632813 -190.62890625 121.69140625 C-199.38944944 119.13684918 -213.4148192 111.5851808 -220 105 C-220.09304018 103.52645652 -220.11746265 102.04849409 -220.11352539 100.57202148 C-220.11344986 99.63112167 -220.11337433 98.69022186 -220.11329651 97.72080994 C-220.10813522 96.69790359 -220.10297394 95.67499725 -220.09765625 94.62109375 C-220.0962413 93.57929459 -220.09482635 92.53749542 -220.09336853 91.46412659 C-220.0877508 88.12188906 -220.0751953 84.77971743 -220.0625 81.4375 C-220.05748728 79.17773534 -220.05292398 76.91796963 -220.04882812 74.65820312 C-220.03777561 69.10544609 -220.02102024 63.55272775 -220 58 C-216.25099833 56.8924154 -212.50072918 55.78922128 -208.75 54.6875 C-207.18378906 54.2244043 -207.18378906 54.2244043 -205.5859375 53.75195312 C-200.33428538 52.21211686 -195.08359681 50.75107106 -189.765625 49.45703125 C-185.4728959 48.40688468 -181.32391472 47.15749706 -177.14941406 45.71435547 C-173.44024188 44.48161605 -169.6600048 43.53146439 -165.875 42.5625 C-164.20825846 42.13049711 -162.54159271 41.6982017 -160.875 41.265625 C-160.05515625 41.05357422 -159.2353125 40.84152344 -158.390625 40.62304688 C-155.51366944 39.87325209 -152.64319706 39.10084818 -149.77319336 38.32495117 C-133.75294783 34 -133.75294783 34 -128 34 C-128 33.34 -128 32.68 -128 32 C-127.31486328 31.83395264 -126.62972656 31.66790527 -125.92382812 31.49682617 C-122.78128758 30.73214484 -119.64065625 29.95988232 -116.5 29.1875 C-115.42234375 28.92646484 -114.3446875 28.66542969 -113.234375 28.39648438 C-107.99034766 27.10146543 -102.97171565 25.68388458 -97.953125 23.6940918 C-94.15044957 22.34271602 -90.19890197 21.60909953 -86.25 20.8125 C-85.41339844 20.63525391 -84.57679688 20.45800781 -83.71484375 20.27539062 C-79.99953369 19.50803392 -76.82597211 19 -73 19 C-73 18.34 -73 17.68 -73 17 C-70.69 17 -68.38 17 -66 17 C-66 16.34 -66 15.68 -66 15 C-65.09443359 14.77795898 -64.18886719 14.55591797 -63.25585938 14.32714844 C-55.32434917 12.36951631 -47.4202158 10.32581135 -39.53125 8.203125 C-37.70577862 7.71465889 -35.88025729 7.22637943 -34.0546875 6.73828125 C-31.25804037 5.99050144 -28.46235799 5.23976174 -25.66894531 4.47998047 C-22.91709589 3.73264112 -20.16209892 2.99805795 -17.40625 2.265625 C-16.57903442 2.03756165 -15.75181885 1.80949829 -14.89953613 1.57452393 C-9.77743323 0.22799981 -5.29679437 -0.21981545 0 0 Z " fill="#193063" transform="translate(236,20)"/>
<path d="M0 0 C0.60317979 40.05913956 0.23295185 79.00046354 -9.29492188 118.08837891 C-9.96326938 120.84832084 -10.59140206 123.61374754 -11.203125 126.38671875 C-11.55139264 127.94546698 -11.90029443 129.50407374 -12.25 131.0625 C-12.47623047 132.08126221 -12.47623047 132.08126221 -12.70703125 133.12060547 C-13.44485681 136.27215091 -14.17371892 138.26057838 -16 141 C-16.51211878 142.7980434 -16.96328512 144.61384528 -17.375 146.4375 C-18.8811848 152.76347617 -20.8568819 158.86437254 -23 165 C-23.66 165 -24.32 165 -25 165 C-25.0825 165.78375 -25.165 166.5675 -25.25 167.375 C-27.61859423 178.82320543 -33.96289051 189.52913284 -39 200 C-39.66 200 -40.32 200 -41 200 C-41.114646 200.7326709 -41.22929199 201.4653418 -41.34741211 202.22021484 C-42.01570003 205.06687637 -42.93962935 206.98236115 -44.44140625 209.4765625 C-44.93866211 210.30679932 -45.43591797 211.13703613 -45.94824219 211.99243164 C-46.48094727 212.8611792 -47.01365234 213.72992676 -47.5625 214.625 C-48.10680664 215.5214624 -48.65111328 216.4179248 -49.21191406 217.34155273 C-53.18236463 223.81789531 -57.39375008 229.95853958 -62 236 C-63.31501324 237.83153147 -64.62745694 239.66491021 -65.9375 241.5 C-70.08066832 247.18481235 -74.47389852 252.61684331 -79 258 C-79.42780762 258.51949219 -79.85561523 259.03898437 -80.29638672 259.57421875 C-87.6660271 268.51226297 -95.62606341 276.8145398 -103.8125 285 C-104.30623108 285.49463745 -104.79996216 285.9892749 -105.30865479 286.49890137 C-111.02694251 292.2160013 -116.8470503 297.75090277 -123 303 C-124.29404209 304.14314998 -125.58600875 305.28865782 -126.875 306.4375 C-129.75195822 309 -129.75195822 309 -132 309 C-132 309.66 -132 310.32 -132 311 C-133.36328125 312.19140625 -133.36328125 312.19140625 -135.3125 313.5625 C-138.59470729 315.94281381 -141.75499714 318.41044585 -144.875 321 C-155.6074301 329.83671574 -166.65814211 338.28427023 -177.8046875 346.58984375 C-189.57192167 355.41718586 -201.3420252 364.409455 -212.5 374 C-215 376 -215 376 -217 376 C-215.78063017 370.90081707 -213.88531083 366.63576199 -211.48046875 361.98828125 C-209.73229127 358.45963804 -208.17712231 354.86802685 -206.625 351.25 C-203.83981713 344.78398891 -200.80595259 338.50488665 -197.6171875 332.2265625 C-195.73968019 328.48061797 -194.00388488 324.68567564 -192.2890625 320.86328125 C-188.72511515 312.9469982 -185.01626009 305.09718654 -181.24609375 297.27734375 C-180.76221191 296.27219727 -180.27833008 295.26705078 -179.77978516 294.23144531 C-178.82538503 292.25150176 -177.86817712 290.27290837 -176.90771484 288.29589844 C-174.35449458 282.99835686 -172.00898809 277.67641565 -169.86889648 272.19897461 C-168.79605873 269.48387216 -167.60527666 266.83457913 -166.375 264.1875 C-164.81528533 260.8246757 -163.35116992 257.45230112 -162 254 C-161.34 254 -160.68 254 -160 254 C-159.9071875 252.824375 -159.9071875 252.824375 -159.8125 251.625 C-158.68925856 246.61361511 -156.37539573 242.53009455 -154 238 C-152.61316267 235.29758852 -151.2429649 232.58700223 -149.875 229.875 C-149.53847412 229.21838379 -149.20194824 228.56176758 -148.85522461 227.88525391 C-147.15535688 224.52080109 -145.64724904 221.17478175 -144.3515625 217.6328125 C-143.1475767 214.39666569 -142.01474782 212.68633043 -140 210 C-139.27574451 208.09059916 -138.55577975 206.17923649 -137.875 204.25390625 C-136.93877921 201.8423018 -135.81888119 199.60699041 -134.625 197.3125 C-132.05623309 192.30689681 -130.06367939 187.15587588 -128.11328125 181.8828125 C-127.19177955 179.49660809 -126.19448936 177.25807578 -125 175 C-124.34 175 -123.68 175 -123 175 C-122.95875 174.071875 -122.9175 173.14375 -122.875 172.1875 C-122.2205461 167.44270922 -119.82552115 163.726328 -117.48046875 159.62109375 C-115.71681349 156.49863286 -114.34171609 153.32512248 -113 150 C-112.20981238 148.10354972 -111.41797591 146.20778608 -110.625 144.3125 C-109.74984282 142.2083987 -108.87484929 140.10422933 -108 138 C-107.06268135 135.74992445 -106.12518861 133.4999214 -105.1875 131.25 C-104.76855469 130.24453125 -104.34960938 129.2390625 -103.91796875 128.203125 C-103.46357422 127.11257813 -103.46357422 127.11257813 -103 126 C-102.34 126 -101.68 126 -101 126 C-100.9175 125.175 -100.835 124.35 -100.75 123.5 C-99.97755798 119.89527056 -98.74401232 117.29622474 -97.0390625 114.0703125 C-96.03757014 112.07485781 -95.24982022 110.10114458 -94.5 108 C-93.55394936 105.36500856 -92.48880396 102.8923401 -91.203125 100.40625 C-88.72291639 95.50942787 -86.48637293 90.51180644 -84.25 85.5 C-83.83878906 84.5821875 -83.42757812 83.664375 -83.00390625 82.71875 C-82.00106547 80.47984966 -80.99979649 78.24026102 -80 76 C-79.34 76 -78.68 76 -78 76 C-78.04125 75.278125 -78.0825 74.55625 -78.125 73.8125 C-77.99078695 70.79270631 -77.24829381 68.73064271 -76 66 C-75.34 66 -74.68 66 -74 66 C-73.91492188 65.19433594 -73.82984375 64.38867188 -73.7421875 63.55859375 C-72.80351068 59.05788541 -71.04976543 55.21902749 -69.125 51.0625 C-68.41888585 49.51189401 -67.71315134 47.96111507 -67.0078125 46.41015625 C-66.66435791 45.66765625 -66.32090332 44.92515625 -65.96704102 44.16015625 C-65.06690612 42.14945351 -64.26899785 40.11969492 -63.47265625 38.06640625 C-61.96522291 34.92758616 -61.46070811 34.08830536 -58.3125 32.875 C-55.2956984 31.59313558 -52.66376589 30.19958262 -49.9375 28.375 C-46.36621171 26.07664615 -43.12923275 24.94628251 -39 24 C-39 23.34 -39 22.68 -39 22 C-38.11699219 21.50371094 -37.23398437 21.00742188 -36.32421875 20.49609375 C-29.50728361 16.64308493 -22.82338539 12.69675712 -16.3046875 8.34765625 C-14.13800666 7.08069881 -12.42252847 6.53539469 -10 6 C-8.97803008 5.02246356 -7.98020375 4.0194119 -7 3 C-2.44444444 0 -2.44444444 0 0 0 Z " fill="#2B66AC" transform="translate(456,159)"/>
<path d="M0 0 C3.58011255 1.76736678 7.03542274 3.70161056 10.5 5.6875 C11.11367432 6.0390918 11.72734863 6.39068359 12.35961914 6.75292969 C17.37782708 9.63230354 22.37627497 12.54510281 27.37109375 15.46484375 C34.08511974 19.41738988 34.08511974 19.41738988 41 23 C41 23.66 41 24.32 41 25 C41.52078125 25.09152344 42.0415625 25.18304688 42.578125 25.27734375 C45.87558251 26.26126252 48.75673368 27.90140166 51.75 29.5625 C52.35199219 29.89185547 52.95398438 30.22121094 53.57421875 30.56054688 C55.05170503 31.3696465 56.52616036 32.18427662 58 33 C58 33.66 58 34.32 58 35 C58.61955566 35.24790283 59.23911133 35.49580566 59.87744141 35.7512207 C62.43655452 37.25684108 62.88680837 38.25235194 63.9609375 40.98046875 C64.29061523 41.78532715 64.62029297 42.59018555 64.95996094 43.41943359 C65.47478027 44.69681396 65.47478027 44.69681396 66 46 C66.75545275 47.70779496 67.51858405 49.41221234 68.2890625 51.11328125 C68.67320313 51.96857422 69.05734375 52.82386719 69.453125 53.70507812 C69.83984375 54.56552734 70.2265625 55.42597656 70.625 56.3125 C71.21667969 57.63217773 71.21667969 57.63217773 71.8203125 58.97851562 C72.201875 59.82736328 72.5834375 60.67621094 72.9765625 61.55078125 C73.31768066 62.31044189 73.65879883 63.07010254 74.01025391 63.8527832 C74.97051814 66.00665838 74.97051814 66.00665838 76.12646484 68.02807617 C77 70 77 70 77 74 C77.66 74 78.32 74 79 74 C80.20959595 76.7077757 81.41793602 79.41609546 82.625 82.125 C83.17305298 83.35428223 83.17305298 83.35428223 83.73217773 84.60839844 C85.89331902 89.46895608 88.00156719 94.34620865 90.0625 99.25 C92.03259455 103.88238449 94.15799714 108.38691215 96.4375 112.875 C99.04950487 118.02920115 101.52730216 123.21996361 103.875 128.5 C104.1733374 129.1585498 104.4716748 129.81709961 104.77905273 130.49560547 C106.45630315 134.31913059 107.50102663 137.85468274 108 142 C108.66 142 109.32 142 110 142 C110.31453125 142.7734375 110.6290625 143.546875 110.953125 144.34375 C113.76547775 151.23730491 113.76547775 151.23730491 117 157.9375 C119.33791881 162.44296298 121.01457306 167.18743772 122.75390625 171.94921875 C123.94278573 174.85992368 125.378929 177.31471445 127 180 C127.73537799 181.68633254 128.46899407 183.37363101 129.17431641 185.07275391 C130.07178261 187.16754935 131.0465237 189.21221768 132.04296875 191.26171875 C132.39423828 191.98810547 132.74550781 192.71449219 133.10742188 193.46289062 C133.83431753 194.96005908 134.56618691 196.45482182 135.30273438 197.94726562 C135.65013672 198.66978516 135.99753906 199.39230469 136.35546875 200.13671875 C136.67153076 200.78342529 136.98759277 201.43013184 137.31323242 202.09643555 C138 204 138 204 138 208 C138.66 208 139.32 208 140 208 C140.42410156 208.99257813 140.84820312 209.98515625 141.28515625 211.0078125 C144.76793225 219.09587072 148.4578795 226.99468362 152.453125 234.84375 C153.75354917 237.49714073 154.88912201 240.11611055 155.9375 242.875 C157.65157255 247.36705219 159.75811079 251.59621752 161.9375 255.875 C164.30589798 260.52533835 166.55198057 265.15306353 168.5 270 C170.39941783 274.71667514 172.56857435 279.22418363 174.875 283.75 C177.92616635 289.73805681 180.70803522 295.78974254 183.33959961 301.97265625 C185.80605939 307.70722825 188.58488557 313.26034808 191.51171875 318.7734375 C193.29012159 322.2032144 194 324.04477742 194 328 C194.66 328 195.32 328 196 328 C196.350625 329.03125 196.70125 330.0625 197.0625 331.125 C198.57506678 335.18732222 200.4683064 339.01967924 202.4375 342.875 C204.85846204 347.61670314 206.99965408 352.36751072 208.890625 357.34375 C210.60879021 361.4576667 212.65875414 365.40145026 214.71484375 369.35546875 C217 373.79605622 217 373.79605622 217 376 C213.05157202 374.30092097 209.88476747 371.66972831 206.5625 369 C205.30128934 367.99675677 204.03955952 366.99416588 202.77734375 365.9921875 C201.82577393 365.23566895 201.82577393 365.23566895 200.85498047 364.46386719 C198.13606391 362.31822048 195.38052563 360.22346521 192.625 358.125 C187.68237852 354.35427772 182.86436673 350.44785694 178.0625 346.5 C172.50259633 341.93519462 166.82318375 337.64814442 160.93334961 333.52075195 C156.44074573 330.35791266 152.18391801 326.98965504 147.96875 323.46875 C145.73498759 321.6112002 143.48826632 319.78165048 141.21875 317.96875 C133.10165534 311.47409513 125.28489009 304.78576801 117.73632812 297.63916016 C115.81693685 295.82718139 113.88586097 294.02820411 111.953125 292.23046875 C92.98077661 274.56397203 92.98077661 274.56397203 85.5078125 265.62890625 C83.89959955 263.7642126 83.89959955 263.7642126 81 262 C79.98245114 260.3439891 78.98515572 258.67548381 78 257 C75.67337433 254.09473168 73.27121058 251.26383511 70.86328125 248.42578125 C69 246 69 246 69 244 C68.34 244 67.68 244 67 244 C65.73828125 242.3828125 65.73828125 242.3828125 64.3125 240.125 C62.15609266 236.77290917 59.94624212 233.49017779 57.625 230.25 C51.50045813 221.5374327 46.02448696 212.3864042 41 203 C40.65259766 202.35417969 40.30519531 201.70835937 39.94726562 201.04296875 C38.73175889 198.78071986 37.52133636 196.51581968 36.3125 194.25 C35.9194165 193.51620117 35.52633301 192.78240234 35.12133789 192.02636719 C30 182.37295976 30 182.37295976 30 178 C29.34 178 28.68 178 28 178 C27.71406982 177.12883545 27.42813965 176.2576709 27.13354492 175.36010742 C26.09932241 172.29441618 24.99990868 169.26719079 23.86328125 166.23828125 C17.07208641 147.88200244 11.64990908 129.41393686 7.49838257 110.26783752 C7.18025224 108.8202189 6.85372305 107.37440328 6.51626587 105.9311676 C5.28461739 100.61854766 4.38800334 95.33158802 3.7109375 89.921875 C3.60256058 89.05642059 3.49418365 88.19096619 3.38252258 87.29928589 C3.03506198 84.45076054 2.70210995 81.60093216 2.375 78.75 C2.20491928 77.2781424 2.20491928 77.2781424 2.03140259 75.77655029 C-0.79784713 50.56037119 -0.50066782 25.33492722 0 0 Z " fill="#121C46" transform="translate(16,159)"/>
<path d="M0 0 C12.05428606 4.17358676 24.61605387 6.83278969 37.0234375 9.72753906 C45.36950371 11.70144003 53.57133705 14.08948352 61.765625 16.61328125 C63.46571024 21.52358332 61.69914358 24.8714877 59.578125 29.30078125 C58.91799662 30.73639394 58.25913742 32.17259092 57.6015625 33.609375 C57.12154785 34.64553955 57.12154785 34.64553955 56.63183594 35.70263672 C55.56452531 38.05685684 54.62221029 40.44773657 53.703125 42.86328125 C51.85636002 47.58279176 49.56896954 52.03444347 47.26953125 56.546875 C45.34444689 60.472047 43.70028976 64.48438508 42.05078125 68.53125 C39.1841607 75.40591144 36.04085544 82.17366545 32.640625 88.80078125 C30.36472109 93.27672561 28.58139522 97.93652855 26.765625 102.61328125 C26.10056236 104.28058863 25.43433177 105.94743208 24.765625 107.61328125 C24.105625 107.61328125 23.445625 107.61328125 22.765625 107.61328125 C22.68054688 108.268125 22.59546875 108.92296875 22.5078125 109.59765625 C21.51053792 113.64974031 19.73001041 117.13124033 17.890625 120.86328125 C14.17526221 128.54169768 10.67033988 136.292414 7.265625 144.11328125 C1.70087992 156.85659583 -4.09086528 169.46677102 -10.40161133 181.85913086 C-14.51432106 189.93791386 -18.01971196 198.1382605 -21.234375 206.61328125 C-21.894375 206.61328125 -22.554375 206.61328125 -23.234375 206.61328125 C-25.44827697 203.43681321 -26.92348209 200.05916533 -28.42944336 196.50610352 C-29.19629226 194.70283401 -29.9824258 192.90780156 -30.76953125 191.11328125 C-31.27355469 189.95828125 -31.77757812 188.80328125 -32.296875 187.61328125 C-32.80347656 186.45828125 -33.31007813 185.30328125 -33.83203125 184.11328125 C-35.22872154 180.62739127 -36.26856715 177.23621597 -37.234375 173.61328125 C-37.894375 173.61328125 -38.554375 173.61328125 -39.234375 173.61328125 C-39.52570313 172.88625 -39.81703125 172.15921875 -40.1171875 171.41015625 C-42.77258879 164.8969078 -45.69779356 158.61879706 -48.89453125 152.35546875 C-50.29765473 149.48376997 -51.40364758 146.60782286 -52.4609375 143.59765625 C-53.3856163 141.22524802 -54.51078903 139.00415811 -55.671875 136.73828125 C-57.80340092 132.57733843 -59.57209449 128.36679401 -61.25390625 124.0078125 C-62.21732909 121.6549113 -63.31004826 119.42966451 -64.484375 117.17578125 C-66.234375 113.61328125 -66.234375 113.61328125 -66.234375 110.61328125 C-66.894375 110.61328125 -67.554375 110.61328125 -68.234375 110.61328125 C-68.894375 107.64328125 -69.554375 104.67328125 -70.234375 101.61328125 C-70.894375 101.61328125 -71.554375 101.61328125 -72.234375 101.61328125 C-72.54890625 100.77925781 -72.8634375 99.94523437 -73.1875 99.0859375 C-76.75895707 89.6947266 -80.59689938 80.66632233 -85.28125 71.77734375 C-86.234375 69.61328125 -86.234375 69.61328125 -86.234375 66.61328125 C-86.894375 66.61328125 -87.554375 66.61328125 -88.234375 66.61328125 C-88.4303125 66.00484375 -88.62625 65.39640625 -88.828125 64.76953125 C-90.85309041 58.8342878 -93.31046122 53.30299386 -96.171875 47.73828125 C-100.4386724 39.4154047 -104.62159791 30.899482 -106.234375 21.61328125 C-106.894375 21.61328125 -107.554375 21.61328125 -108.234375 21.61328125 C-108.564375 19.96328125 -108.894375 18.31328125 -109.234375 16.61328125 C-93.75280224 12.35644327 -78.11104322 8.10446807 -62.234375 5.61328125 C-62.234375 4.95328125 -62.234375 4.29328125 -62.234375 3.61328125 C-58.5403213 2.67801164 -54.84435495 1.75202514 -51.14453125 0.83984375 C-47.72566755 -0.00529991 -44.32073716 -0.89312936 -40.91796875 -1.80078125 C-25.35233088 -5.8716217 -15.0852545 -5.29252234 0 0 Z " fill="#FCFDFD" transform="translate(258.234375,97.38671875)"/>
<path d="M0 0 C12.05428606 4.17358676 24.61605387 6.83278969 37.0234375 9.72753906 C45.36950371 11.70144003 53.57133705 14.08948352 61.765625 16.61328125 C63.46571024 21.52358332 61.69914358 24.8714877 59.578125 29.30078125 C58.91799662 30.73639394 58.25913742 32.17259092 57.6015625 33.609375 C57.12154785 34.64553955 57.12154785 34.64553955 56.63183594 35.70263672 C55.56452531 38.05685684 54.62221029 40.44773657 53.703125 42.86328125 C51.85636002 47.58279176 49.56896954 52.03444347 47.26953125 56.546875 C45.34444689 60.472047 43.70028976 64.48438508 42.05078125 68.53125 C38.89314648 76.10381484 35.3626828 83.51237261 31.64453125 90.82421875 C30.22966776 93.704252 28.99957005 96.65181313 27.765625 99.61328125 C27.435625 98.95328125 27.105625 98.29328125 26.765625 97.61328125 C10.595625 97.61328125 -5.574375 97.61328125 -22.234375 97.61328125 C-22.234375 75.17328125 -22.234375 52.73328125 -22.234375 29.61328125 C-46.26910046 29.52426375 -70.21841662 29.7377722 -94.234375 30.61328125 C-94.564375 34.24328125 -94.894375 37.87328125 -95.234375 41.61328125 C-95.894375 41.61328125 -96.554375 41.61328125 -97.234375 41.61328125 C-97.564375 42.27328125 -97.894375 42.93328125 -98.234375 43.61328125 C-98.47671875 42.99582031 -98.7190625 42.37835938 -98.96875 41.7421875 C-101.00558238 36.59526876 -103.13756927 31.52997339 -105.5 26.5234375 C-106.234375 24.61328125 -106.234375 24.61328125 -106.234375 21.61328125 C-106.894375 21.61328125 -107.554375 21.61328125 -108.234375 21.61328125 C-108.564375 19.96328125 -108.894375 18.31328125 -109.234375 16.61328125 C-93.75280224 12.35644327 -78.11104322 8.10446807 -62.234375 5.61328125 C-62.234375 4.95328125 -62.234375 4.29328125 -62.234375 3.61328125 C-58.5403213 2.67801164 -54.84435495 1.75202514 -51.14453125 0.83984375 C-47.72566755 -0.00529991 -44.32073716 -0.89312936 -40.91796875 -1.80078125 C-25.35233088 -5.8716217 -15.0852545 -5.29252234 0 0 Z " fill="#F1F2F2" transform="translate(258.234375,97.38671875)"/>
<path d="M0 0 C0 3 0 3 -2.5 5.6875 C-3.325 6.450625 -4.15 7.21375 -5 8 C-3.38756815 9.61243185 -1.61946654 9.16538039 0.61157227 9.20532227 C2.10364197 9.23559509 2.10364197 9.23559509 3.62585449 9.26647949 C4.67873657 9.28295532 5.73161865 9.29943115 6.81640625 9.31640625 C7.77865112 9.33505737 8.740896 9.3537085 9.7322998 9.3729248 C13.34226914 9.44145506 16.95239633 9.50145491 20.5625 9.5625 C28.626875 9.706875 36.69125 9.85125 45 10 C45 33.43 45 56.86 45 81 C20.91 81 -3.18 81 -28 81 C-28 62.85 -28 44.7 -28 26 C-28.66 25.67 -29.32 25.34 -30 25 C-28.25084555 23.56147125 -26.50064205 22.12421802 -24.75 20.6875 C-23.77546875 19.88699219 -22.8009375 19.08648437 -21.796875 18.26171875 C-15.29015544 13 -15.29015544 13 -13 13 C-13 12.34 -13 11.68 -13 11 C-11.44684614 9.62751319 -9.83114316 8.32521299 -8.1875 7.0625 C-5.29438661 4.82899976 -2.5111062 2.66127202 0 0 Z " fill="#F1F2F2" transform="translate(337,457)"/>
<path d="M0 0 C5.4980355 8.24705325 8.95824454 18.13716852 12.96508789 27.19897461 C15.38244798 32.65139436 17.88082507 38.06042001 20.42553711 43.4543457 C22.53828693 47.95406479 24.53265927 52.49761191 26.5 57.0625 C30.06599232 65.31499601 34.05887719 73.3112493 38.1875 81.296875 C40.41091694 85.63948621 42.28099217 90.05467357 44.05078125 94.6015625 C44.89796713 96.74218856 45.80659638 98.83809477 46.75 100.9375 C48 104 48 104 48 107 C48.66 107 49.32 107 50 107 C50.24234375 107.61746094 50.4846875 108.23492187 50.734375 108.87109375 C53.41871076 115.65420372 56.29250767 122.32081882 59.36328125 128.9375 C59.82089844 129.9275 60.27851563 130.9175 60.75 131.9375 C61.17796875 132.85402344 61.6059375 133.77054688 62.046875 134.71484375 C63 137 63 137 63 139 C58.74183567 140.03978431 54.6081414 140.15369896 50.25 140.125 C49.19135742 140.12209961 49.19135742 140.12209961 48.11132812 140.11914062 C43.00082524 140.07690506 38.05482657 139.72211808 33 139 C32.67 139.99 32.34 140.98 32 142 C31.55269531 140.96101562 31.10539062 139.92203125 30.64453125 138.8515625 C26.98808341 130.40065448 23.28627607 122.00789989 18.86328125 113.921875 C18 112 18 112 18 109 C17.34 109 16.68 109 16 109 C15.79246094 108.44054687 15.58492187 107.88109375 15.37109375 107.3046875 C13.33616053 102.00875251 11.01724883 96.92607638 8.4375 91.875 C6.57395637 88.22574281 4.74564715 84.6191411 3.375 80.75 C2.25758572 77.70250651 1.03617655 75.00111798 -0.4375 72.125 C-2.53427047 68.02534431 -4.29560474 63.88699919 -5.953125 59.59375 C-7.49549474 55.77235631 -9.27098827 52.06525045 -11.046875 48.34765625 C-12 46 -12 46 -12 43 C-12.66 43 -13.32 43 -14 43 C-14.41958984 41.85337891 -14.41958984 41.85337891 -14.84765625 40.68359375 C-18.76696382 30.21110311 -23.31229937 20.09618771 -28.5 10.1875 C-28.995 9.135625 -29.49 8.08375 -30 7 C-29 5 -29 5 -27 4 C-24.96767366 3.91472372 -22.93252994 3.89283865 -20.8984375 3.90234375 C-19.68671875 3.90556641 -18.475 3.90878906 -17.2265625 3.91210938 C-15.95554687 3.92048828 -14.68453125 3.92886719 -13.375 3.9375 C-12.09625 3.94201172 -10.8175 3.94652344 -9.5 3.95117188 C-6.33328708 3.96298797 -3.16666644 3.97946185 0 4 C0 2.68 0 1.36 0 0 Z " fill="#EFF0F0" transform="translate(138,258)"/>
<path d="M0 0 C1.17308716 -0.00688843 1.17308716 -0.00688843 2.36987305 -0.01391602 C10.25248155 0.00677325 17.96387311 0.63055457 25.875 1.125 C25.875 23.565 25.875 46.005 25.875 69.125 C9.375 69.455 -7.125 69.785 -24.125 70.125 C-38.125 42.125 -38.125 42.125 -38.125 38.125 C-38.785 38.125 -39.445 38.125 -40.125 38.125 C-40.35574219 37.44695312 -40.58648437 36.76890625 -40.82421875 36.0703125 C-42.87539445 30.21675971 -45.1943313 24.76028886 -48.171875 19.31640625 C-49.125 17.125 -49.125 17.125 -49.125 13.125 C-48.465 13.125 -47.805 13.125 -47.125 13.125 C-47.13660156 12.34253906 -47.14820313 11.56007812 -47.16015625 10.75390625 C-47.16917969 9.74199219 -47.17820313 8.73007813 -47.1875 7.6875 C-47.19910156 6.67816406 -47.21070313 5.66882813 -47.22265625 4.62890625 C-47.125 2.125 -47.125 2.125 -46.125 1.125 C-43.87431816 0.96484911 -41.61872782 0.8732299 -39.36328125 0.80859375 C-38.32241112 0.77728615 -38.32241112 0.77728615 -37.26051331 0.74534607 C-34.98629264 0.67888239 -32.71195971 0.6201647 -30.4375 0.5625 C-29.66513 0.54165344 -28.89276001 0.52080688 -28.09698486 0.49932861 C-18.73263722 0.24694853 -9.36808646 0.02849017 0 0 Z " fill="#FEFEFE" transform="translate(210.125,125.875)"/>
<path d="M0 0 C0.495 0.99 0.495 0.99 1 2 C8.59 2 16.18 2 24 2 C25.12528627 14.37814897 25.12528627 14.37814897 25.12939453 19.37353516 C25.13254669 20.49063873 25.13569885 21.60774231 25.13894653 22.75869751 C25.1369223 23.92371796 25.13489807 25.0887384 25.1328125 26.2890625 C25.13376923 27.51410492 25.13472595 28.73914734 25.13571167 30.00131226 C25.13638776 32.5677699 25.13457363 35.1342293 25.13037109 37.70068359 C25.12496832 41.64815021 25.13035898 45.59550542 25.13671875 49.54296875 C25.13605877 52.04166692 25.13477928 54.54036502 25.1328125 57.0390625 C25.13483673 58.22432526 25.13686096 59.40958801 25.13894653 60.63076782 C25.13421829 62.25914078 25.13421829 62.25914078 25.12939453 63.92041016 C25.12859894 64.87984528 25.12780334 65.8392804 25.12698364 66.82778931 C25 69 25 69 24 70 C22.06693502 70.09396057 20.13041162 70.11743517 18.19506836 70.11352539 C16.33325172 70.11341209 16.33325172 70.11341209 14.43382263 70.11329651 C13.0691626 70.10818911 11.70450298 70.1029731 10.33984375 70.09765625 C8.95121817 70.095792 7.56259193 70.09436813 6.17396545 70.09336853 C2.51278885 70.08954387 -1.1483483 70.07971403 -4.80950928 70.06866455 C-8.54292263 70.05844932 -12.27634234 70.05387067 -16.00976562 70.04882812 C-23.33986177 70.03809171 -30.66992536 70.02101591 -38 70 C-36.1633354 66.19672781 -33.87963768 62.79151845 -31.5 59.3125 C-27.61916336 53.56768468 -23.95352685 47.72506097 -20.4375 41.75 C-20.00824219 41.02337158 -19.57898438 40.29674316 -19.13671875 39.5480957 C-17.4925498 36.72785216 -16.03526234 34.10578703 -15 31 C-14.34 31 -13.68 31 -13 31 C-12.90332031 30.31292969 -12.80664062 29.62585938 -12.70703125 28.91796875 C-11.84933057 25.37817646 -10.37496667 22.53928317 -8.6875 19.3125 C-6.08485843 14.26180283 -3.75097627 9.2069116 -1.7265625 3.890625 C-1 2 -1 2 0 0 Z " fill="#F0F1F1" transform="translate(430,328)"/>
<path d="M0 0 C0.96084503 0.00007553 1.92169006 0.00015106 2.91165161 0.00022888 C3.95127045 0.00539017 4.99088928 0.01055145 6.06201172 0.01586914 C7.12459198 0.01728409 8.18717224 0.01869904 9.2819519 0.02015686 C12.68522931 0.02576705 16.0884416 0.0383213 19.49169922 0.05102539 C21.79508369 0.05603908 24.09846918 0.06060221 26.40185547 0.06469727 C32.05682571 0.0757398 37.71175781 0.09248788 43.36669922 0.11352539 C43.38982557 8.70158259 43.40761579 17.28962688 43.41851139 25.87770748 C43.42373958 29.86509739 43.43083606 33.85246606 43.44213867 37.83984375 C43.45296983 41.68477653 43.45897654 45.52968884 43.46157646 49.3746357 C43.4634303 50.84471522 43.46705013 52.31479357 43.47242928 53.78486443 C43.47964277 55.83707006 43.48069003 57.88919006 43.48022461 59.94140625 C43.48244522 61.11166855 43.48466583 62.28193085 43.48695374 63.48765564 C43.36669922 66.11352539 43.36669922 66.11352539 42.36669922 67.11352539 C39.50402355 67.18677707 36.66598022 67.20590744 33.80419922 67.17602539 C32.99789062 67.17151367 32.19158203 67.16700195 31.36083984 67.16235352 C29.36276166 67.15053057 27.36472139 67.13259453 25.36669922 67.11352539 C25.03669922 68.10352539 24.70669922 69.09352539 24.36669922 70.11352539 C16.31043404 54.35296779 16.31043404 54.35296779 13.29248047 46.40258789 C11.93084731 43.03584935 10.24473512 39.85110002 8.58935547 36.62133789 C6.97995707 33.32027153 5.66837461 29.93240856 4.34716797 26.50805664 C3.38374513 24.15515544 2.29102596 21.92990865 1.11669922 19.67602539 C-0.63330078 16.11352539 -0.63330078 16.11352539 -0.63330078 13.11352539 C-1.29330078 13.11352539 -1.95330078 13.11352539 -2.63330078 13.11352539 C-3.29330078 10.14352539 -3.95330078 7.17352539 -4.63330078 4.11352539 C-5.29330078 4.11352539 -5.95330078 4.11352539 -6.63330078 4.11352539 C-6.63330078 3.12352539 -6.63330078 2.13352539 -6.63330078 1.11352539 C-4.21555497 -0.09534751 -2.69999014 -0.00706804 0 0 Z " fill="#F1F1F2" transform="translate(192.63330078125,194.886474609375)"/>
<path d="M0 0 C1.34888732 0.00015905 2.69778075 0.00584927 4.04663086 0.01586914 C5.10991859 0.01799156 5.10991859 0.01799156 6.19468689 0.02015686 C8.46699173 0.02577096 10.73919936 0.03832576 13.01147461 0.05102539 C14.54858257 0.05603858 16.08569206 0.0606018 17.62280273 0.06469727 C21.39823103 0.07574497 25.17358632 0.09301898 28.94897461 0.11352539 C26.94897461 5.11352539 24.94897461 10.11352539 22.94897461 15.11352539 C22.28897461 15.11352539 21.62897461 15.11352539 20.94897461 15.11352539 C20.80202148 15.69618164 20.65506836 16.27883789 20.50366211 16.87915039 C18.82550462 23.01310536 16.41198613 28.35191478 13.48413086 33.98461914 C11.95316189 37.10499101 10.71184277 40.22811947 9.51147461 43.48852539 C6.84483569 50.6599718 3.45635669 57.3231672 -0.05102539 64.11352539 C-1.0537717 66.11214988 -2.05465021 68.11171708 -3.05102539 70.11352539 C-3.54602539 69.12352539 -3.54602539 69.12352539 -4.05102539 68.11352539 C-13.62102539 68.11352539 -23.19102539 68.11352539 -33.05102539 68.11352539 C-29.67641561 57.98969605 -29.67641561 57.98969605 -28.14868164 54.61352539 C-27.64884766 53.49977539 -27.64884766 53.49977539 -27.13891602 52.36352539 C-26.80053711 51.62102539 -26.4621582 50.87852539 -26.11352539 50.11352539 C-25.77901367 49.37102539 -25.44450195 48.62852539 -25.09985352 47.86352539 C-24.42615494 46.36814821 -23.7506282 44.87359325 -23.07324219 43.37988281 C-22.01909647 41.04273576 -20.98357516 38.69787769 -19.94946289 36.35180664 C-18.58910004 33.28525416 -17.16340197 30.27743198 -15.61352539 27.30102539 C-12.31341451 20.78254013 -9.36256879 14.0481556 -7.05102539 7.11352539 C-6.39102539 7.11352539 -5.73102539 7.11352539 -5.05102539 7.11352539 C-4.90665039 6.14415039 -4.76227539 5.17477539 -4.61352539 4.17602539 C-3.87296933 0.14410905 -3.87296933 0.14410905 0 0 Z " fill="#EDEDEE" transform="translate(273.051025390625,397.886474609375)"/>
<path d="M0 0 C4.17521143 1.79839082 7.59551256 4.57805322 11.1875 7.3125 C11.88512451 7.84012939 12.58274902 8.36775879 13.30151367 8.91137695 C15.5369336 10.60419746 17.76848073 12.30204209 20 14 C21.48171379 15.12247114 22.96348417 16.24486758 24.4453125 17.3671875 C31.50718817 22.72902566 38.48591159 28.15680884 45.31640625 33.8125 C53.03015318 40.10027042 61.02120788 46.05501763 69 52 C68.01 49.69 67.02 47.38 66 45 C67.65 45 69.3 45 71 45 C71 48.3 71 51.6 71 55 C47.24 55 23.48 55 -1 55 C-1.020625 46.110625 -1.04125 37.22125 -1.0625 28.0625 C-1.071604 25.25242432 -1.08070801 22.44234863 -1.09008789 19.54711914 C-1.09300683 17.33479866 -1.09555544 15.12247765 -1.09765625 12.91015625 C-1.10277222 11.74931519 -1.10788818 10.58847412 -1.11315918 9.39245605 C-1.11328003 8.29622925 -1.11340088 7.20000244 -1.11352539 6.07055664 C-1.115746 5.11347305 -1.11796661 4.15638947 -1.12025452 3.17030334 C-1 1 -1 1 0 0 Z " fill="#F0F1F0" transform="translate(164,483)"/>
<path d="M0 0 C7.05529524 0 11.14508541 0.34642098 17.375 2.6875 C31.07509042 7.52998311 45.12103775 10.81602661 59.2578125 14.11425781 C67.60387871 16.08815878 75.80571205 18.47620227 84 21 C85.55989942 25.37971759 84.48301461 27.92038288 82.6484375 31.93164062 C82.14183594 32.98641602 82.14183594 32.98641602 81.625 34.0625 C80.9686454 35.468791 80.31491057 36.8763083 79.6640625 38.28515625 C79.22247803 39.21146851 79.22247803 39.21146851 78.77197266 40.15649414 C77.96606 42.08105026 77.45549543 43.9665583 77 46 C75.68 46.33 74.36 46.66 73 47 C72.67 42.71 72.34 38.42 72 34 C48.24 34 24.48 34 0 34 C0 22.78 0 11.56 0 0 Z " fill="#FCFCFD" transform="translate(236,93)"/>
<path d="M0 0 C6.93 0 13.86 0 21 0 C21 22.44 21 44.88 21 68 C14.07 68 7.14 68 0 68 C0 45.56 0 23.12 0 0 Z " fill="#F1F1F1" transform="translate(455,398)"/>
<path d="M0 0 C6.93 0 13.86 0 21 0 C21 22.44 21 44.88 21 68 C14.07 68 7.14 68 0 68 C0 45.56 0 23.12 0 0 Z " fill="#F1F2F1" transform="translate(455,262)"/>
<path d="M0 0 C7 7 7 7 7 10 C7.58555664 10.25507324 8.17111328 10.51014648 8.77441406 10.77294922 C11.227518 12.12543939 12.71682402 13.57465057 14.609375 15.6328125 C15.28226563 16.35726563 15.95515625 17.08171875 16.6484375 17.828125 C17.34195313 18.58609375 18.03546875 19.3440625 18.75 20.125 C25.88866411 27.86081472 33.06124717 35.40000495 41.046875 42.26953125 C44.17313557 45.03939812 47.08133339 48.01483212 50 51 C50.99885124 52.00114745 51.99849737 53.00150489 53 54 C50.51644959 55.24177521 48.86892378 55.12036681 46.09130859 55.11352539 C45.05611084 55.11340454 44.02091309 55.11328369 42.9543457 55.11315918 C41.31792114 55.10548523 41.31792114 55.10548523 39.6484375 55.09765625 C38.6478833 55.09664917 37.6473291 55.09564209 36.61645508 55.09460449 C32.86929177 55.08936192 29.12214477 55.07540072 25.375 55.0625 C17.00125 55.041875 8.6275 55.02125 0 55 C0 36.85 0 18.7 0 0 Z " fill="#EFEFEF" transform="translate(90,411)"/>
<path d="M0 0 C0.33 0.66 0.66 1.32 1 2 C7.6 2 14.2 2 21 2 C21 24.11 21 46.22 21 69 C18.32578739 70.3371063 16.23547806 70.13242656 13.25 70.125 C11.71085937 70.12886719 11.71085937 70.12886719 10.140625 70.1328125 C7.01532833 70.00064821 4.07734197 69.53968711 1 69 C0.24181725 46.65780625 -0.14892791 24.35522458 0 2 C-0.66 1.67 -1.32 1.34 -2 1 C-1.34 0.67 -0.68 0.34 0 0 Z " fill="#F2F2F2" transform="translate(455,125)"/>
<path d="M0 0 C6.93 0 13.86 0 21 0 C21 19.47 21 38.94 21 59 C14.07 59 7.14 59 0 59 C0 39.53 0 20.06 0 0 Z " fill="#F1F2F1" transform="translate(455,0)"/>
<path d="M0 0 C5.61 0 11.22 0 17 0 C17 22.44 17 44.88 17 68 C11.39 68 5.78 68 0 68 C0 45.56 0 23.12 0 0 Z " fill="#F2F2F2" transform="translate(0,398)"/>
<path d="M0 0 C0.28939807 5.58245801 0.57401091 11.16513374 0.85449219 16.74804688 C0.95023293 18.6410149 1.04720434 20.53392114 1.14550781 22.42675781 C1.93861552 37.72240652 2.35797975 52.72272781 1 68 C-4.61 68 -10.22 68 -16 68 C-16 45.89 -16 23.78 -16 1 C-5 0 -5 0 0 0 Z " fill="#FEFEFE" transform="translate(16,194)"/>
<path d="M0 0 C5.28 0 10.56 0 16 0 C17 1 17 1 17.09765625 3.74389648 C17.08605469 4.94087158 17.07445313 6.13784668 17.0625 7.37109375 C17.05476563 8.66724609 17.04703125 9.96339844 17.0390625 11.29882812 C17.02037409 13.37053681 16.99995334 15.44222417 16.97949219 17.51391602 C16.96144885 19.50794275 16.94938717 21.50202081 16.9375 23.49609375 C16.92589844 24.69419678 16.91429688 25.8922998 16.90234375 27.12670898 C16.79837299 29.94389068 16.79837299 29.94389068 18 32 C17.34 32 16.68 32 16 32 C16 43.55 16 55.1 16 67 C11 68 11 68 0 68 C0 45.56 0 23.12 0 0 Z " fill="#F2F2F2" transform="translate(0,127)"/>
<path d="M0 0 C5.61 0 11.22 0 17 0 C17 19.47 17 38.94 17 59 C11.39 59 5.78 59 0 59 C0 39.53 0 20.06 0 0 Z " fill="#F2F2F2" transform="translate(0,0)"/>
<path d="M0 0 C7.92 0.33 15.84 0.66 24 1 C24 17.5 24 34 24 51 C21 50 21 50 19.83203125 48.0390625 C19.49558594 47.24242187 19.15914062 46.44578125 18.8125 45.625 C18.46832031 44.83351563 18.12414062 44.04203125 17.76953125 43.2265625 C17 41 17 41 17 38 C16.34 38 15.68 38 15 38 C14.79246094 37.44054687 14.58492187 36.88109375 14.37109375 36.3046875 C12.09109839 30.37097572 9.40227972 24.71706332 6.51098633 19.06323242 C4.34230323 14.78661531 2.59360936 10.51522653 1 6 C0.67 5.67 0.34 5.34 0 5 C0 3.35 0 1.7 0 0 Z " fill="#FAFBFC" transform="translate(139,329)"/>
<path d="M0 0 C24.09 0 48.18 0 73 0 C72.67 2.97 72.34 5.94 72 9 C48.24 9 24.48 9 0 9 C0 6.03 0 3.06 0 0 Z " fill="#F1F1F1" transform="translate(382,539)"/>
<path d="M0 0 C1.88290489 0.00212242 1.88290489 0.00212242 3.80384827 0.00428772 C7.11970976 0.00892049 10.43550077 0.01788486 13.75134277 0.0289917 C17.14346716 0.03927333 20.53559886 0.04379972 23.92773438 0.04882812 C30.56773011 0.05983054 37.20768355 0.07708142 43.84765625 0.09765625 C43.84765625 6.36765625 43.84765625 12.63765625 43.84765625 19.09765625 C39.39265625 18.10765625 39.39265625 18.10765625 34.84765625 17.09765625 C32.7252922 16.8068874 30.60034054 16.53402421 28.47265625 16.28515625 C22.97758789 15.47724655 18.51853945 13.9196145 13.578125 11.4140625 C6.20997833 7.86175145 -1.1785356 6.06180237 -9.15234375 4.41015625 C-10.21324219 4.18521484 -11.27414062 3.96027344 -12.3671875 3.72851562 C-14.96112537 3.1793486 -17.55611624 2.63587517 -20.15234375 2.09765625 C-20.15234375 1.76765625 -20.15234375 1.43765625 -20.15234375 1.09765625 C-13.44435167 -0.13949098 -6.80421043 -0.02900731 0 0 Z " fill="#E8EDF0" transform="translate(410.15234375,58.90234375)"/>
<path d="M0 0 C7.47590459 -0.02261946 14.95179039 -0.04095472 22.42772198 -0.05181217 C25.89933738 -0.05702399 29.3709281 -0.06409068 32.8425293 -0.07543945 C36.83642815 -0.08841348 40.83030119 -0.09324228 44.82421875 -0.09765625 C46.06709152 -0.10281754 47.30996429 -0.10797882 48.59049988 -0.11329651 C50.33173882 -0.11340981 50.33173882 -0.11340981 52.1081543 -0.11352539 C53.12741501 -0.115746 54.14667572 -0.11796661 55.19682312 -0.12025452 C57.90256415 -0.00417994 60.36549032 0.39084966 63 1 C60.32183931 2.4269012 57.81749286 3.41756462 54.875 4.1484375 C54.08480469 4.34953125 53.29460937 4.550625 52.48046875 4.7578125 C50.85808156 5.16149309 49.23568607 5.56514029 47.61328125 5.96875 C43.08200967 7.12163391 38.65326268 8.42116767 34.2265625 9.9296875 C27.68084139 12.15246599 21.05414887 13.97549409 14.375 15.75 C13.20582031 16.06582031 12.03664063 16.38164063 10.83203125 16.70703125 C2.26565882 19 2.26565882 19 0 19 C0 12.73 0 6.46 0 0 Z " fill="#EEEEEF" transform="translate(17,59)"/>
<path d="M0 0 C6.6 0 13.2 0 20 0 C18.4840625 3.2484375 18.4840625 3.2484375 16.9375 6.5625 C16.59662354 7.29388184 16.25574707 8.02526367 15.90454102 8.77880859 C14.32805071 12.16084824 12.74673571 15.54042155 11.15234375 18.9140625 C7.56171222 26.52776675 4.15470016 34.19320744 1 42 C0.34 42 -0.32 42 -1 42 C-1.495 40.515 -1.495 40.515 -2 39 C-1.34 39 -0.68 39 0 39 C0 26.13 0 13.26 0 0 Z " fill="#EFEFF0" transform="translate(236,262)"/>
<path d="M0 0 C7.75774057 2.98374637 10.87610484 6.16786626 14.265625 13.78125 C15 16 15 16 15 20 C15.66 20 16.32 20 17 20 C17.66 22.31 18.32 24.62 19 27 C12.4 26.67 5.8 26.34 -1 26 C-1.02686682 22.04162186 -1.04677414 18.08342438 -1.0625 14.125 C-1.07087891 12.99707031 -1.07925781 11.86914062 -1.08789062 10.70703125 C-1.09111328 9.63066406 -1.09433594 8.55429688 -1.09765625 7.4453125 C-1.10289307 6.45031738 -1.10812988 5.45532227 -1.11352539 4.43017578 C-1 2 -1 2 0 0 Z " fill="#EBECED" transform="translate(91,169)"/>
<path d="M0 0 C3.63 0 7.26 0 11 0 C11.0544207 2.68777802 11.09387266 5.37443212 11.125 8.0625 C11.14175781 8.81466797 11.15851563 9.56683594 11.17578125 10.34179688 C11.21865121 15.29327709 10.58399375 19.30414451 9 24 C6.58398697 21.58398697 5.8278815 19.41936676 4.5625 16.25 C3.20338888 12.87843651 1.84371281 9.70826391 0.125 6.5 C-1 4 -1 4 0 0 Z " fill="#E7E8EA" transform="translate(79,195)"/>
<path d="M0 0 C5.61 0 11.22 0 17 0 C17 2.97 17 5.94 17 9 C11.39 9 5.78 9 0 9 C0 6.03 0 3.06 0 0 Z " fill="#F1F2F1" transform="translate(0,539)"/>
<path d="M0 0 C0.33 0 0.66 0 1 0 C1 13.2 1 26.4 1 40 C-0.65 40 -2.3 40 -4 40 C-4.33 40.99 -4.66 41.98 -5 43 C-4.88204476 41.54107996 -4.75508849 40.08288823 -4.625 38.625 C-4.55539062 37.81289063 -4.48578125 37.00078125 -4.4140625 36.1640625 C-4.06830177 33.52192858 -3.58944023 31.00748944 -3.03125 28.40625 C-1.83849333 22.59441017 -1.33355805 16.78363321 -0.875 10.875 C-0.78863281 9.823125 -0.70226562 8.77125 -0.61328125 7.6875 C-0.4036527 5.12537327 -0.19931886 2.56294577 0 0 Z " fill="#E4EBEE" transform="translate(454,222)"/>
<path d="M0 0 C0.33 0 0.66 0 1 0 C1.11593506 1.05388916 1.23187012 2.10777832 1.35131836 3.19360352 C1.78442856 7.12797395 2.21902375 11.0621792 2.65405273 14.99633789 C2.8416284 16.69453581 3.02880887 18.39277744 3.21557617 20.09106445 C3.48510886 22.5412963 3.75609304 24.99136407 4.02734375 27.44140625 C4.10967758 28.19273331 4.19201141 28.94406036 4.27684021 29.71815491 C4.77024042 34.15968836 5.34517646 38.57930411 6 43 C5.505 41.515 5.505 41.515 5 40 C3.35 40 1.7 40 0 40 C0 26.8 0 13.6 0 0 Z " fill="#D1D3D8" transform="translate(17,222)"/>
<path d="M0 0 C1.65 0 3.3 0 5 0 C4.01 1.485 4.01 1.485 3 3 C2.6742279 5.07736917 2.6742279 5.07736917 2.68115234 7.37963867 C2.66128265 8.26032516 2.64141296 9.14101166 2.62094116 10.04838562 C2.60938995 10.99534805 2.59783875 11.94231049 2.5859375 12.91796875 C2.56657135 13.89034988 2.5472052 14.86273102 2.5272522 15.86457825 C2.4674445 18.97212944 2.4210661 22.07971765 2.375 25.1875 C2.33682133 27.293636 2.29776967 29.39975637 2.2578125 31.50585938 C2.16174189 36.67044605 2.07771509 41.83510582 2 47 C1.34 47 0.68 47 0 47 C0 31.49 0 15.98 0 0 Z " fill="#212E55" transform="translate(16,78)"/>
<path d="M0 0 C1.98 0 3.96 0 6 0 C6 3.96 6 7.92 6 12 C5.34 12 4.68 12 4 12 C3.67 12.66 3.34 13.32 3 14 C2.32694982 12.39850114 1.66177773 10.79368971 1 9.1875 C0.62875 8.29417969 0.2575 7.40085938 -0.125 6.48046875 C-1 4 -1 4 -1 1 C-0.67 0.67 -0.34 0.34 0 0 Z " fill="#E4E6EA" transform="translate(157,127)"/>
<path d="M0 0 C5.92 5.92 5.92 5.92 6.125 11.25 C6.08375 12.1575 6.0425 13.065 6 14 C4.02 14 2.04 14 0 14 C0 9.38 0 4.76 0 0 Z " fill="#F6F7F8" transform="translate(163,316)"/>
<path d="M0 0 C0.33 0 0.66 0 1 0 C1 5.28 1 10.56 1 16 C-1.31 16 -3.62 16 -6 16 C-4.25192871 10.53262809 -2.34205919 5.24175152 0 0 Z " fill="#DBE1E7" transform="translate(307,314)"/>
<path d="M0 0 C0.33 0 0.66 0 1 0 C2.40027356 31.11401495 2.40027356 31.11401495 1 46 C0.01 45.67 -0.98 45.34 -2 45 C-1.67 44.01 -1.34 43.02 -1 42 C-0.88705254 40.60420727 -0.82410813 39.20400091 -0.79467773 37.80395508 C-0.77473251 36.96331009 -0.75478729 36.1226651 -0.73423767 35.25654602 C-0.70916893 33.90172371 -0.70916893 33.90172371 -0.68359375 32.51953125 C-0.66281265 31.59154221 -0.64203156 30.66355316 -0.62062073 29.70744324 C-0.55522677 26.7425376 -0.49628738 23.77754328 -0.4375 20.8125 C-0.39430513 18.8027252 -0.35069053 16.79295937 -0.30664062 14.78320312 C-0.19955573 9.85555968 -0.09825955 4.92782701 0 0 Z " fill="#151F57" transform="translate(235,423)"/>
<path d="M0 0 C2.67901932 2.31881505 3.66204403 4.31814468 4.6875 7.6875 C5.06455078 8.89986328 5.06455078 8.89986328 5.44921875 10.13671875 C5.63097656 10.75160156 5.81273437 11.36648438 6 12 C2.23511958 10.27845212 -0.15063897 8.00765886 -3 5 C-2.34 5 -1.68 5 -1 5 C-0.67 3.35 -0.34 1.7 0 0 Z " fill="#3E446A" transform="translate(227,523)"/>
<path d="M0 0 C-7.18052459 3.48901845 -13.0412201 4.54470737 -21 4 C-21 3.67 -21 3.34 -21 3 C-18.69 3 -16.38 3 -14 3 C-14 2.34 -14 1.68 -14 1 C-12.41913952 0.63495397 -10.83516093 0.28339494 -9.25 -0.0625 C-8.36828125 -0.25972656 -7.4865625 -0.45695312 -6.578125 -0.66015625 C-4.01320972 -0.99825872 -2.42908361 -0.81158635 0 0 Z " fill="#455E8C" transform="translate(184,34)"/>
<path d="M0 0 C0.33 0.66 0.66 1.32 1 2 C1.66 2 2.32 2 3 2 C2.51421457 5.12290635 2.0013988 7.99580359 1 11 C0.01 10.67 -0.98 10.34 -2 10 C-2.6875 7.9375 -2.6875 7.9375 -3 6 C-2.01 6.33 -1.02 6.66 0 7 C0 4.69 0 2.38 0 0 Z " fill="#3C498F" transform="translate(236,462)"/>
<path d="M0 0 C-0.33 0.99 -0.66 1.98 -1 3 C-7.435 3.495 -7.435 3.495 -14 4 C-10.07627117 0.07627117 -5.34401044 -0.25447669 0 0 Z " fill="#50668F" transform="translate(146,43)"/>
<path d="M0 0 C0 0.66 0 1.32 0 2 C-1.9147688 2.36428777 -3.83192293 2.71605306 -5.75 3.0625 C-6.81734375 3.25972656 -7.8846875 3.45695312 -8.984375 3.66015625 C-11.74771905 3.97156937 -13.40946617 3.8991416 -16 3 C-14.27318563 2.49193553 -12.54342021 1.99389533 -10.8125 1.5 C-9.84957031 1.2215625 -8.88664063 0.943125 -7.89453125 0.65625 C-5.14654124 0.03322392 -2.80401584 -0.12302812 0 0 Z " fill="#4C6694" transform="translate(202,28)"/>
<path d="M0 0 C1.32 0.33 2.64 0.66 4 1 C3.34 1.66 2.68 2.32 2 3 C1.69324768 5.89967757 1.48826629 8.71783178 1.375 11.625 C1.33632813 12.42679688 1.29765625 13.22859375 1.2578125 14.0546875 C1.16346069 16.03607556 1.08063785 18.01800645 1 20 C0.67 20 0.34 20 0 20 C0 13.4 0 6.8 0 0 Z " fill="#0D1B45" transform="translate(17,78)"/>
<path d="M0 0 C1.1351555 3.4054665 0.84899821 4.31723087 -0.25 7.625 C-0.62898438 8.81996094 -0.62898438 8.81996094 -1.015625 10.0390625 C-2 12 -2 12 -5 13 C-4.54554036 11.58208592 -4.08625056 10.16571954 -3.625 8.75 C-3.24214844 7.56664062 -3.24214844 7.56664062 -2.8515625 6.359375 C-2.04826333 4.13372042 -1.10288338 2.09068328 0 0 Z " fill="#659CCA" transform="translate(374,239)"/>
<path d="M0 0 C-1.28519565 2.86697492 -2.57129254 4.97607712 -5 7 C-5.66 7 -6.32 7 -7 7 C-4.60526316 0 -4.60526316 0 0 0 Z " fill="#43539A" transform="translate(246,528)"/>
<path d="M0 0 C-1.44253657 3.36591866 -3.33264727 5.51047079 -6 8 C-6.99 7.67 -7.98 7.34 -9 7 C-8.34 7 -7.68 7 -7 7 C-6.731875 6.401875 -6.46375 5.80375 -6.1875 5.1875 C-3.37142857 0 -3.37142857 0 0 0 Z " fill="#3559A1" transform="translate(348,446)"/>
<path d="M0 0 C0.66 0.66 1.32 1.32 2 2 C-0.625 7.75 -0.625 7.75 -4 10 C-3.52449439 8.51965236 -3.04448784 7.04074979 -2.5625 5.5625 C-2.29566406 4.73878906 -2.02882813 3.91507813 -1.75390625 3.06640625 C-1 1 -1 1 0 0 Z " fill="#609DCC" transform="translate(392,200)"/>
<path d="M0 0 C1.65 0 3.3 0 5 0 C4.67 2.64 4.34 5.28 4 8 C3.34 7.67 2.68 7.34 2 7 C1.26924352 4.6859378 0.59861742 2.35171131 0 0 Z " fill="#E3E5E6" transform="translate(230,528)"/>
<path d="M0 0 C-3.26613695 1.91302307 -5.99445248 2.35674661 -9.75 2.625 C-10.73484375 2.69976562 -11.7196875 2.77453125 -12.734375 2.8515625 C-13.48203125 2.90054688 -14.2296875 2.94953125 -15 3 C-12.41464321 1.27642881 -10.96188386 0.55264982 -8.0625 -0.1875 C-7.39347656 -0.36667969 -6.72445312 -0.54585938 -6.03515625 -0.73046875 C-3.75319112 -1.03268678 -2.17973341 -0.68756692 0 0 Z " fill="#B2B8CA" transform="translate(168,111)"/>
<path d="M0 0 C0.66 0 1.32 0 2 0 C1.01 2.97 0.02 5.94 -1 9 C-1.66 9 -2.32 9 -3 9 C-2.5020163 5.26512223 -2.12508244 3.18762365 0 0 Z " fill="#374D9C" transform="translate(280,446)"/>
<path d="M0 0 C2.97 1.65 5.94 3.3 9 5 C9 5.33 9 5.66 9 6 C6.75 6.25 6.75 6.25 4 6 C1.6875 4.125 1.6875 4.125 0 2 C0 1.34 0 0.68 0 0 Z " fill="#2F3B65" transform="translate(59,184)"/>
<path d="M0 0 C0 0.66 0 1.32 0 2 C-2.75 4.1875 -2.75 4.1875 -6 6 C-8.203125 5.61328125 -8.203125 5.61328125 -10 5 C-8.71186658 4.16121545 -7.41936744 3.32913217 -6.125 2.5 C-5.40570313 2.0359375 -4.68640625 1.571875 -3.9453125 1.09375 C-2 0 -2 0 0 0 Z " fill="#57A1D2" transform="translate(441,168)"/>
<path d="M0 0 C-0.33 0.66 -0.66 1.32 -1 2 C-9.10332103 3.46125461 -9.10332103 3.46125461 -13 2 C-8.46298506 0.54815522 -4.81938524 -0.23509196 0 0 Z " fill="#475E8C" transform="translate(159,40)"/>
<path d="M0 0 C0.33 0.99 0.66 1.98 1 3 C-0.9375 6.1875 -0.9375 6.1875 -3 9 C-3.75 7.3125 -3.75 7.3125 -4 5 C-2.0625 2.25 -2.0625 2.25 0 0 Z " fill="#354795" transform="translate(273,463)"/>
<path d="M0 0 C0.66 0.33 1.32 0.66 2 1 C0.35 2.98 -1.3 4.96 -3 7 C-3.99 6.34 -4.98 5.68 -6 5 C-4.02 3.35 -2.04 1.7 0 0 Z " fill="#D7DCE8" transform="translate(313,477)"/>
</svg>
